<svg height="1056" viewBox="0 0 1059 1056" width="1059" xmlns="http://www.w3.org/2000/svg" xmlns:xlink="http://www.w3.org/1999/xlink"><defs><path id="a" d="m431.061314 940c259.425663 0 487.835176-210.426167 510.166927-470 22.331745-259.573832-169.870851-470-429.296516-470-259.425666 0-487.8351793 210.426168-510.16692673 470-22.33174737 259.573833 169.87084873 470 429.29651573 470z"/><filter id="b" height="123.9%" width="123.9%" x="-11.9%" y="-7.5%"><feOffset dx="0" dy="42" in="SourceAlpha" result="shadowOffsetOuter1"/><feGaussianBlur in="shadowOffsetOuter1" result="shadowBlurOuter1" stdDeviation="30.5"/><feColorMatrix in="shadowBlurOuter1" type="matrix" values="0 0 0 0 0   0 0 0 0 0   0 0 0 0 0  0 0 0 0.3 0"/></filter><filter id="c" height="100%" width="100%" x="0%" y="0%"><feGaussianBlur in="SourceGraphic" stdDeviation="18.2641509"/></filter><path id="d" d="m890.394412 165c3.019653 25.589448-5.253407 50.2282-24.819179 73.916253-19.565772 23.688054-45.907539 35.53208-79.025312 35.53208l-62.977337.363397c39.393202 52.779296 59.977836 120.64775 53.603978 194.68827-14.47716 168.170707-162.549778 304.5-330.729454 304.5s-292.780187-136.329293-278.30303-304.5c14.477156-168.170706 162.549776-304.5 330.729452-304.5zm-401.090784 111.166667c-106.780747 0-200.795108 86.558282-209.986954 193.333334s69.91959 193.333333 176.700337 193.333333c106.780746 0 200.795108-86.558281 209.986952-193.333333 9.191849-106.775052-69.919588-193.333334-176.700335-193.333334z"/><filter id="e" height="124.5%" width="120.6%" x="-10.3%" y="-7%"><feOffset dx="0" dy="32" in="SourceAlpha" result="shadowOffsetOuter1"/><feGaussianBlur in="shadowOffsetOuter1" result="shadowBlurOuter1" stdDeviation="19.5"/><feColorMatrix in="shadowBlurOuter1" type="matrix" values="0 0 0 0 0   0 0 0 0 0   0 0 0 0 0  0 0 0 0.21913243 0"/></filter><filter id="f" height="116.9%" width="114.2%" x="-7.1%" y="-3.2%"><feGaussianBlur in="SourceAlpha" result="shadowBlurInner1" stdDeviation="12.5"/><feOffset dx="0" dy="0" in="shadowBlurInner1" result="shadowOffsetInner1"/><feComposite in="shadowOffsetInner1" in2="SourceAlpha" k2="-1" k3="1" operator="arithmetic" result="shadowInnerInner1"/><feColorMatrix in="shadowInnerInner1" type="matrix" values="0 0 0 0 0.132284483   0 0 0 0 0.769655172   0 0 0 0 0.93  0 0 0 1 0"/></filter><mask id="g" fill="#fff"><use fill="#fff" fill-rule="evenodd" xlink:href="#a"/></mask></defs><g fill="none" fill-rule="nonzero" transform="translate(58 16)"><g><g><use fill="#000" filter="url(#b)" xlink:href="#a"/><use fill="#20283b" xlink:href="#a"/></g><path d="m969.277124 109.030405c3.604492 30.583431-6.270876 60.030628-29.626104 88.341591-23.355228 28.310964-54.798811 42.466446-94.330762 42.466446l-75.17465.434316c47.022791 63.079591 71.594212 144.193108 63.985879 232.683218-17.281064 200.990542-194.032063 363.925569-394.784412 363.925569-200.752348 0-349.4852132-162.935027-332.204152-363.925569 17.28106-200.990543 194.032061-363.925571 394.78441-363.925571zm-478.773171 132.861716c-127.461809 0-239.684666 103.450812-250.656769 231.063855-10.972102 127.613043 83.461464 231.063854 210.923272 231.063854s239.684666-103.450811 250.656766-231.063854c10.972107-127.613043-83.461461-231.063855-210.923269-231.063855z" fill="#000" filter="url(#c)" mask="url(#g)" opacity="0"/></g><g><use fill="#000" filter="url(#e)" xlink:href="#d"/><use fill="#24d2ff" xlink:href="#d"/><use fill="#000" filter="url(#f)" xlink:href="#d"/></g></g></svg>