<?xml version="1.0" encoding="UTF-8"?>
<svg viewBox="0 0 503 500" version="1.1" xmlns="http://www.w3.org/2000/svg">
    <g id="SIEM-Logos" stroke="none" stroke-width="1" fill="none" fill-rule="evenodd">
        <g id="elastic" fill="currentColor" fill-rule="nonzero">
            <path d="M425.538946,340.597954 L342.769473,321.195909 L320.723839,279.228954 L429.063729,184.311566 C461.211644,196.443745 482.580645,227.254131 482.580645,261.778127 C482.580645,297.167585 459.150275,329.45712 425.538946,340.597954 Z M363.273013,438.442172 C350.385523,438.442172 337.781275,434.099135 327.458694,426.231314 L343.839496,340.928403 L418.992919,358.552321 C421.369001,365.01967 422.596381,371.91188 422.596381,379.118804 C422.596381,411.91188 396.034618,438.457907 363.257278,438.457907 L363.273013,438.442172 Z M308.119591,426.231314 C285.082612,460.267506 246.640441,480.660897 205.507474,480.566809 C136.978757,480.566809 81.2588513,424.846577 81.2588513,356.396538 C81.2588513,347.962234 82.0771046,339.669552 83.7136113,331.66011 L191.738788,233.957514 L302.061369,284.201416 L326.483084,330.904799 L308.119591,426.231314 Z M19.4649882,238.316286 C19.4649882,202.926829 42.8166798,170.637293 76.4280094,159.496459 L159.02439,179.071597 L178.457907,220.472069 L72.8245476,315.95594 C40.7710464,303.745083 19.4649882,272.918961 19.4649882,238.332022 L19.4649882,238.316286 Z M138.693942,61.6365067 C151.738788,61.6365067 164.358773,65.9008655 174.760031,73.7686861 L158.284815,159.323367 L82.9583006,141.620771 C80.5822187,135.074744 79.3548387,128.166798 79.3548387,120.97561 C79.3548387,88.2612116 105.995279,61.6365067 138.693942,61.6365067 Z M194.350905,73.9103068 C217.529504,40.2360346 255.656963,20.0786782 296.553895,20.0786782 C364.830842,20.0786782 420.377655,75.656963 420.377655,143.996853 C420.377655,152.368214 419.63808,160.314713 418.001574,168.33989 L307.206924,265.460268 L197.372148,215.405193 L175.908733,169.583006 L194.350905,73.9103068 Z M502.014162,261.998426 C502.014162,219.874115 475.877262,183.084186 436.616837,168.827695 C438.426436,159.889851 439.244689,150.873328 439.244689,141.872541 C439.244689,63.68214 375.625492,0 297.450826,0 C251.707317,0 209.268293,21.9669552 182.533438,58.8512982 C169.331235,48.5916601 153.123525,43.0369788 136.475216,43.115657 C94.9173879,43.115657 61.1487018,76.8686074 61.1487018,118.347758 C61.1487018,127.521637 62.7852085,136.286389 65.8221873,144.579072 C26.797797,158.678206 -7.8265919e-15,196.302124 -7.8265919e-15,238.174666 C-7.8265919e-15,280.456334 26.2313139,317.340677 65.6490952,331.597168 C63.9339103,340.456334 63.0212431,349.45712 63.0212431,358.552321 C63.0212431,436.585366 126.530291,500 204.563336,500 C250.385523,500 292.824548,478.033045 319.38631,440.912667 C332.588513,451.313926 348.717545,456.963021 365.52321,456.963021 C407.00236,456.963021 440.755311,423.288749 440.755311,381.730921 C440.755311,372.557042 439.118804,363.79229 436.081825,355.499607 C475.106216,341.400472 501.982691,303.776554 501.982691,261.982691 L502.014162,261.998426 Z"
                  id="Shape"></path>
        </g>
    </g>
</svg>
