<?xml version="1.0" encoding="UTF-8"?>
<svg viewBox="0 0 500 580" version="1.1" xmlns="http://www.w3.org/2000/svg">
    <g id="SIEM-Logos" stroke="none" stroke-width="1" fill="none" fill-rule="evenodd">
        <g id="logo-loki" fill="currentColor" fill-rule="nonzero">
            <path d="M118.581003,525.690935 L125.497655,572.133671 L80.0433749,579.051383 L72.1382872,532.608648 L118.581003,525.690935 Z M190.713144,514.822179 L198.618336,560.276372 L151.187185,568.181585 L145.258031,521.73885 L190.713144,514.822179 Z M262.842161,502.962797 L269.758813,550.394075 L224.304741,556.323245 L216.399549,510.86801 L262.842161,502.962797 Z M107.707067,453.557559 L114.62372,500.000295 L68.1810038,506.918007 L61.2639349,460.47423 L107.707067,453.557559 Z M179.839209,442.687761 L186.756903,489.131539 L141.301789,496.047168 L133.397639,449.605474 L179.839209,442.687761 Z M251.973433,431.819005 L258.890086,477.27424 L212.447474,485.179453 L205.530822,438.735676 L251.973433,431.819005 Z M20.7506859,62.2533701 L77.0749436,431.819005 L57.3120681,434.78359 L0,65.2176427 L20.7506859,62.2533701 Z M42.4882448,30.6319972 L103.753117,427.865878 L83.9902417,430.830463 L22.7253693,34.5848121 L42.4882448,30.6319972 Z M84.9838855,1.13686838e-13 L149.213231,420.949207 L129.44973,422.92525 L65.22101,3.95221067 L84.9838855,1.13686838e-13 Z M116.598715,33.5948115 L175.887134,416.995038 L157.112173,418.971081 L97.8238587,36.5590841 L116.598715,33.5948115 Z M168.973606,69.1706658 L221.344331,409.091908 L201.581872,413.045035 L149.210106,72.1349384 L168.973606,69.1706658 Z M193.67668,52.3732601 L248.024483,405.140864 L229.250564,408.105449 L173.914221,55.3376368 L193.67668,52.3732601 Z M493.083348,468.379443 L500,514.822179 L296.443132,546.443031 L288.537941,499.011753 L493.083348,468.379443 Z M481.229206,396.246067 L489.134398,441.700261 L284.58899,473.321113 L278.660878,427.865878 L481.229206,396.246067 Z"
                  id="Combined-Shape"></path>
        </g>
    </g>
</svg>
