<svg xmlns="http://www.w3.org/2000/svg" x="0px" y="0px" width="100" height="100" viewBox="0 0 48 48">
    <path fill="#0d47a1" d="M42,24.649V11.784C23.741,18.92,17.065,24.368,18.881,41.55c0.09,0.85,0.596,1.613,1.371,1.973	c1.442,0.668,2.742,1.035,3.748,1.035C29.143,44.558,42,34.952,42,24.649z"></path><path fill="#1e88e5" d="M24,4.042c3.461,0,10.416,1.75,14.595,2.895c0.39,0.107,0.757,0.211,1.094,0.308	C41.078,7.647,42,8.932,42,10.379v2.128c-0.413,9.479-3.45,12.236-11.928,19.062c-1.113,0.985-2.258,1.923-3.42,2.874	c-1.665,1.363-3.365,2.756-5.062,4.362c-0.648,0.613-1.052,1.481-1.052,2.443c0,1.446,0.913,2.679,2.193,3.154	c-0.312-0.07-0.64-0.162-0.982-0.277c-3.101-1.039-7.286-3.87-10.563-7.63C8.603,20.397,13.667,12.507,24,4.042z"></path><path fill="#80d8ff" d="M8.409,7.212C12.383,6.1,20.246,4.042,24,4.042c0.27,0,0.562,0.011,0.872,0.032	c3.431,0.331,6.114,3.223,6.114,6.741c0,1.277-0.354,2.472-0.968,3.492c-1.314,2.619-3.465,4.677-6.738,7.372	c-0.94,0.774-2.018,1.628-3.093,2.48c-1.016,0.805-2.029,1.608-2.919,2.338c-2.164,1.774-3.486,2.858-4.214,4.219	c-0.692,1.062-1.095,2.331-1.095,3.694c0,1.995,0.863,3.788,2.235,5.028c0.044,0.049,0.088,0.097,0.132,0.143	c0.012,0.018,0.024,0.036,0.035,0.053c-0.435-0.372-0.866-0.762-1.29-1.167C9.214,34.778,6,29.8,6,24.648V10.415v-0.001	C6,8.923,6.973,7.614,8.409,7.212z"></path>
</svg>