<svg viewBox="0 0 35 32" fill="none" xmlns="http://www.w3.org/2000/svg">
    <path d="M34.3016 5.06276L31.5116 10.2258C31.4519 10.3335 31.4297 10.458 31.4486 10.5798L32.4646 18.1748C32.4886 18.3507 32.4633 18.5298 32.3917 18.6922C32.32 18.8546 32.2047 18.9939 32.0586 19.0948L26.2786 23.1338C26.1904 23.1955 26.1209 23.2802 26.0776 23.3788L23.2386 29.9518C23.0786 30.3208 22.7406 30.5818 22.3426 30.6408L17.4476 31.3548C17.2994 31.3771 17.1487 31.3771 17.0006 31.3548L12.1056 30.6408C11.9099 30.6116 11.725 30.5332 11.568 30.4129C11.4111 30.2925 11.2874 30.1341 11.2086 29.9528L8.37056 23.3798C8.32889 23.2803 8.25946 23.1949 8.17056 23.1338L2.38956 19.0978C2.24386 18.9968 2.12886 18.8576 2.05722 18.6954C1.98558 18.5333 1.96009 18.3545 1.98356 18.1788L2.99956 10.5828C3.01446 10.4614 2.99251 10.3384 2.93656 10.2298L0.138563 5.06276C0.0378801 4.87185 -0.00944857 4.65731 0.00156303 4.44176L0.134563 2.17976C0.161563 1.76376 0.402563 1.39476 0.778563 1.20976L2.37056 0.41976C2.59267 0.309756 2.83927 0.258523 3.08682 0.270953C3.33436 0.283383 3.57459 0.35906 3.78456 0.49076L7.35856 2.72676C7.42893 2.77078 7.50793 2.79919 7.59022 2.81006C7.67251 2.82092 7.75618 2.814 7.83556 2.78976L16.7696 0.0667603C17.063 -0.0222534 17.3762 -0.0222534 17.6696 0.0667603L26.6046 2.78976C26.6838 2.81385 26.7673 2.8207 26.8494 2.80983C26.9315 2.79896 27.0103 2.77064 27.0806 2.72676L30.6566 0.49076C30.8665 0.359396 31.1066 0.283994 31.3539 0.27174C31.6013 0.259486 31.8477 0.31079 32.0696 0.42076L33.6586 1.20876C34.0306 1.39476 34.2756 1.76376 34.3016 2.17976L34.4356 4.44176C34.4466 4.65776 34.4026 4.87276 34.2976 5.06276H34.3016Z" fill="white"/>
</svg>
