<?xml version="1.0" encoding="UTF-8"?>
<svg viewBox="0 0 500 500" version="1.1" xmlns="http://www.w3.org/2000/svg">
    <g id="SIEM-Logos" stroke="none" stroke-width="1" fill="none" fill-rule="evenodd">
        <g id="svgviewer-output" fill="currentColor" fill-rule="nonzero">
            <g id="Q3_icons">
                <path d="M418.75,0 L81.25,0 C36.3768641,0 0,36.3768641 0,81.25 L0,418.75 C0,440.29884 8.56024328,460.965095 23.797574,476.202426 C39.0349048,491.439757 59.7011602,500 81.25,500 L418.75,500 C440.29884,500 460.965095,491.439757 476.202426,476.202426 C491.439757,460.965095 500,440.29884 500,418.75 L500,81.25 C500,59.7011602 491.439757,39.0349048 476.202426,23.797574 C460.965095,8.56024328 440.29884,0 418.75,0 Z M370,276.25 C370,277.5 370,278.75 367.5,280 L133.75,397.5 C132.5,398.75 130,396.25 130,395 L130,335 C130,333.75 130,332.5 131.25,332.5 L301.25,247.5 L131.25,161.25 C130,161.25 130,160 130,158.75 L130,98.75 C130,97.5 132.5,95 133.75,96.25 L367.5,213.75 C369.073787,214.93034 370,216.782767 370,218.75 L370,276.25 Z"
                      id="Shape"></path>
            </g>
        </g>
    </g>
</svg>
