<svg viewBox="0 0 142 159" fill="none" xmlns="http://www.w3.org/2000/svg">
    <path d="M111.632 7.03623H12.1255C5.4565 7.03623 0 12.4937 0 19.1625V128.899C0 135.567 5.4565 141.024 12.1255 141.024H77.6628C76.9189 108.415 88.0545 45.1304 111.632 7.03623Z" fill="#0F80CC"/>
    <path d="M108.016 10.5737H12.1255C7.39012 10.5737 3.53662 14.4262 3.53662 19.1625V120.893C25.2539 112.558 57.8488 105.366 80.3862 105.692C84.9151 82.0114 98.2256 35.6019 108.016 10.5737Z" fill="url(#paint0_linear_5_13)"/>
    <path d="M134.842 3.44498C128.027 -2.63252 119.775 -0.191272 111.632 7.03623C110.423 8.10998 109.217 9.30123 108.017 10.5737C94.0853 25.3525 81.154 52.7275 77.1365 73.6337C78.7015 76.8075 79.924 80.8575 80.729 83.9512C80.9353 84.745 81.1215 85.49 81.2703 86.1237C81.624 87.6236 81.814 88.5962 81.814 88.5962C81.814 88.5962 81.689 88.1236 81.1765 86.6375C81.079 86.3525 80.9703 86.0412 80.8415 85.675C80.7865 85.5237 80.7103 85.34 80.6265 85.1437C79.7178 83.0312 77.204 78.5725 76.0978 76.6312C75.1515 79.4225 74.3153 82.0337 73.6153 84.3962C76.809 90.2397 78.7553 100.254 78.7553 100.254C78.7553 100.254 78.5865 99.605 77.784 97.3399C77.0715 95.3365 73.5227 89.1187 72.6821 87.6651C71.2441 92.9736 70.6728 96.5576 71.188 97.4302C72.1884 99.1211 73.1411 102.039 73.9778 105.265C75.8678 112.534 77.1815 121.382 77.1815 121.382C77.1815 121.382 77.224 121.969 77.2953 122.871C77.0328 128.975 77.1903 135.304 77.6628 141.024C78.289 148.596 79.4678 155.101 80.9703 158.582L81.9903 158.026C79.784 151.167 78.8878 142.179 79.2803 131.812C79.874 115.967 83.5203 96.8589 90.2578 76.9425C101.64 46.8775 117.433 22.755 131.887 11.235C118.713 23.1325 100.883 61.6437 95.5453 75.905C89.569 91.875 85.334 106.861 82.7815 121.22C87.1853 107.759 101.424 101.973 101.424 101.973C101.424 101.973 108.408 93.3599 116.569 81.055C111.68 82.17 103.653 84.0787 100.964 85.2087C96.9978 86.8725 95.929 87.44 95.929 87.44C95.929 87.44 108.776 79.6162 119.799 76.0737C134.958 52.1987 151.473 18.2812 134.842 3.44498Z" fill="#003B57"/>
    <defs>
        <linearGradient id="paint0_linear_5_13" x1="63.7814" y1="12.8313" x2="63.7814" y2="114.758" gradientUnits="userSpaceOnUse">
            <stop stop-color="#97D9F6"/>
            <stop offset="0.920245" stop-color="#0F80CC"/>
            <stop offset="1" stop-color="#0F80CC"/>
        </linearGradient>
    </defs>
</svg>
