<svg height="1000" viewBox="0 0 1000 1000" width="1000" xmlns="http://www.w3.org/2000/svg" xmlns:xlink="http://www.w3.org/1999/xlink"><linearGradient id="a" x1="18.233769%" x2="104.326718%" y1="45.528124%" y2="64.019898%"><stop offset="0" stop-color="#1d243e"/><stop offset="1" stop-color="#161b2e"/></linearGradient><mask id="b" fill="#fff"><rect fill="#fff" fill-rule="evenodd" height="1000" rx="199" width="1000"/></mask><g fill="none" fill-rule="evenodd"><rect height="999" rx="199" stroke="#979797" width="999" x=".5" y=".5"/><path d="m0 0h1974v1037h-1974z" fill="#11131b" mask="url(#b)"/><path d="m-70.0549705 1062.66008c33.0919307-167.990639 143.1611121-370.321492 330.2075445-606.99256 187.046432-236.671068 394.922861-410.9813457 623.629286-522.9308321l1069.1008-14.5789214v1257.3331135z" fill="url(#a)" mask="url(#b)" opacity=".188546"/><g fill-rule="nonzero" mask="url(#b)"><g transform="translate(126 137)"><path d="m332.850437 726c200.319404 0 376.689224-162.520635 393.933019-363 17.243791-200.479364-131.168317-363-331.487722-363-200.319406 0-376.689226 162.520636-393.93301863 363-17.24379257 200.479365 131.16831563 363 331.48772163 363z" fill="#23293b"/><path d="m748.44182 81.9255706c2.783263 23.6208194-4.84215 46.3640804-22.876239 68.2297824-18.034088 21.865702-42.313721 32.798552-72.838907 32.798552l-58.04723.33544c36.309351 48.718918 55.282541 111.366167 49.407653 179.710656-13.343832 155.233121-149.824759 281.074429-304.838685 281.074429-155.013927 0-269.8602321-125.841308-256.5164025-281.074429 13.3438291-155.233122 149.8247565-281.0744304 304.8386835-281.0744304zm-369.691861 102.6144744c-98.42154 0-185.076098 79.899244-193.548371 178.459956-8.472272 98.560712 64.446017 178.459955 162.867558 178.459955s185.076098-79.899243 193.548369-178.459955c8.472276-98.560712-64.446015-178.459956-162.867556-178.459956z" fill="#21c0e9"/></g></g></g></svg>